<?xml version="1.0" encoding="utf-8"?>
<!-- Generator: Adobe Illustrator 23.0.0, SVG Export Plug-In . SVG Version: 6.00 Build 0)  -->
<svg version="1.1" id="Layer_1" xmlns="http://www.w3.org/2000/svg" xmlns:xlink="http://www.w3.org/1999/xlink" x="0px" y="0px"
	 viewBox="0 0 50 50" style="enable-background:new 0 0 50 50;" xml:space="preserve">
<style type="text/css">
	.st0{fill:#EDB914;}
</style>
<path class="st0" d="M355.9,2914.4c0,2.6,1.3,4.5,3.9,4.5c3.4,0,6.5-4.3,7.2-8l1.2-6.6c-0.6-0.2-1.6-0.4-2.9-0.4
	C360.1,2903.8,355.9,2908.7,355.9,2914.4"/>
<path class="st0" d="M330.4,2943.5h64v-64h-64V2943.5z M371.2,2922c-2.4,0-4.5-1.6-4.3-5.2h-0.2c-2.1,3.5-4.8,5.2-8.3,5.2
	c-3.4,0-6.3-2.8-6.3-7.4c0-7.3,5.8-13.9,13.9-13.9c2.5,0,4.8,0.5,6.3,1.2l-2,10.6c-0.9,4.5-0.2,6.5,1.8,6.6c3,0.1,6.3-3.9,6.3-10.8
	c0-8.5-5.1-14.6-14.2-14.6c-9.6,0-17.6,7.6-17.6,19.5c0,9.8,6.4,15.9,15.1,15.9c3.3,0,6.5-0.7,8.9-2.1l0.9,2.5
	c-3.2,1.7-6.5,2.4-10.5,2.4c-9.6,0-17.8-7.1-17.8-18.3c0-12.1,8.4-22.6,21.4-22.6c10.2,0,17.1,7.2,17.1,17
	C381.7,2916.8,376.7,2922,371.2,2922"/>
<g>
	<path class="st0" d="M20.2,27.5c0,2,1,3.5,3,3.5c2.6,0,5.1-3.4,5.6-6.2l1-5.1c-0.5-0.1-1.2-0.3-2.3-0.3
		C23.4,19.3,20.2,23.1,20.2,27.5"/>
	<path class="st0" d="M0.4,50.1H50V0.5H0.4V50.1z M32,33.4c-1.8,0-3.5-1.2-3.4-4h-0.2c-1.6,2.7-3.7,4-6.4,4c-2.6,0-4.9-2.1-4.9-5.7
		c0-5.6,4.5-10.8,10.8-10.8c2,0,3.7,0.4,4.9,1l-1.5,8.2c-0.7,3.5-0.1,5.1,1.4,5.1c2.3,0,4.9-3.1,4.9-8.3c0-6.6-4-11.3-11-11.3
		c-7.4,0-13.7,5.9-13.7,15.1c0,7.6,5,12.3,11.7,12.3c2.6,0,5-0.5,6.9-1.6l0.7,2c-2.5,1.3-5.1,1.8-8.1,1.8c-7.5,0-13.8-5.5-13.8-14.2
		c0-9.4,6.5-17.5,16.6-17.5c7.9,0,13.2,5.6,13.2,13.2C40.1,29.4,36.3,33.4,32,33.4"/>
</g>
</svg>
