<?xml version="1.0" encoding="utf-8"?>
<!-- Generator: Adobe Illustrator 19.0.0, SVG Export Plug-In . SVG Version: 6.00 Build 0)  -->
<svg version="1.1" id="Capa_1" xmlns="http://www.w3.org/2000/svg" xmlns:xlink="http://www.w3.org/1999/xlink" x="0px" y="0px"
	 viewBox="0 0 374.1 94.4" style="enable-background:new 0 0 374.1 94.4;" xml:space="preserve">
<style type="text/css">
	.st0{fill:#1E2226;}
	.st1{fill:#273038;}
	.st2{fill:#EABD3D;}
</style>
<g id="XMLID_48_">
	<path id="XMLID_49_" class="st0" d="M149.5,57.7h-9.6l-3.9-7.9l0.5-0.8h-17.7l0.5,0.8l-3.8,7.9h-9.7L124,21.3h7.4L149.5,57.7z
		 M132.7,42.2l-0.9-0.8l-2.8-5.7l-1.3-3.7l-1.3,3.7l-2.7,5.7l-0.9,0.8H132.7z"/>
	<path id="XMLID_52_" class="st0" d="M191.1,57.7h-9.8l-5.2-9.7c-1.3-2.5-3.2-3.6-7.3-3.6h-6.7l0.8,0.8v12.5h-8.8V21.3h18.2
		c7.4,0,14.5,3.6,14.5,11.6c0,3.6-2.8,7.2-6,8.6v0.1c1.2,0.6,2.6,1.8,3.6,3.7L191.1,57.7z M172.4,29h-10.3l0.8,0.8v6.7l-0.8,0.8h9.8
		c4.5,0,6.1-2.2,6.1-4.1C178,30.7,176.3,29,172.4,29z"/>
	<path id="XMLID_55_" class="st0" d="M211.2,58.1c-6.9,0-13.1-2.2-17.6-6.4l6-6c3,2.9,8.2,4.7,12.4,4.7c5.3,0,7.1-1.3,7.1-3.2
		c0-0.7-0.7-2.4-5.4-3.6c-0.8-0.2-5.9-1.4-6.7-1.6c-6.5-1.6-12.7-4-12.7-10.4c0-6.1,6-10.8,16.5-10.8c7,0,12.7,2.4,16.5,6.3l-6.1,6
		c-2.2-2.5-6.6-4.7-10.6-4.7c-5.2,0-7.5,1.4-7.5,3c0,1.4,1.7,2,7.1,3.4c0.8,0.2,5,1.3,5.8,1.4c7.7,1.8,11.8,6,11.8,11
		C228,53,222.7,58.1,211.2,58.1z"/>
	<path id="XMLID_57_" class="st0" d="M265.6,57.7h-31.3V21.3h31.3V29h-23.3l0.8,0.8v5l-0.8,0.8h21.1v7.7h-21.1l0.8,0.8v5l-0.8,0.8
		h23.3V57.7z"/>
	<path id="XMLID_59_" class="st0" d="M307.2,57.7h-7.2l-15.2-17.9l-3.1-4.6h-0.1v22.5h-8.8V21.3h7.2l15.5,18.1l2.8,4.2h0.1V21.3h8.8
		V57.7z"/>
	<path id="XMLID_61_" class="st0" d="M324.2,57.7h-8.8V21.3h8.8V57.7z"/>
	<path id="XMLID_63_" class="st0" d="M367,51.2c-3.8,4.3-9.5,7-15.9,7c-13.1,0-20.1-7.6-20.1-18.5c0-10.8,7.2-18.8,20.1-18.8
		c6.9,0,12.1,2.3,15.8,6.9l-5.8,5.8c-2.1-3.2-5.8-5-9.9-5c-7.9,0-11.2,4.6-11.2,11.1c0,6.3,3.1,10.8,11.2,10.8c4.1,0,8-1.8,10.2-4.9
		L367,51.2z"/>
</g>
<g id="XMLID_1_">
	<path id="XMLID_2_" class="st1" d="M116.2,69.8l-2.1-0.1h-1.5l-0.1,7.7l0,3.8h-1l0.1-3.7l-0.1-7.8h-1.5l-2.1,0.1l-0.1-0.1l0.1-0.8
		h8.2l0.1,0.1L116.2,69.8z"/>
	<path id="XMLID_4_" class="st1" d="M126.8,81.3h-6.5l0.1-3.7l-0.1-8.6h6.5l0.1,0.1l-0.1,0.8l-2.9,0l-2.5,0l0,4.7l2.4,0l2.1,0
		l0.1,0.1l-0.1,0.8l-4.5,0l0,2.1l0,2.9l2.5,0l3-0.1l0.1,0.1L126.8,81.3z"/>
	<path id="XMLID_6_" class="st1" d="M138.6,69.9l-0.2,0.9l-0.2,0c-0.8-0.7-1.9-1.1-3-1.1c-2.7,0-4.2,1.9-4.2,5.4
		c0,3.5,1.5,5.4,4.1,5.4c1.2,0,2.4-0.4,3.4-1.2l0.2,0.1l-0.1,0.9c-1.1,0.7-2.3,1.1-3.5,1.1c-3.2,0-5.1-2.2-5.1-6.2
		c0-4.1,1.9-6.3,5.3-6.3C136.5,68.8,137.7,69.2,138.6,69.9z"/>
	<path id="XMLID_8_" class="st1" d="M151.9,81.3h-1l-7-10.7h-0.1l0,6.7l0,4h-0.9l0.1-3.7l0-8.7h1l7,10.7h0.1l0-10.6l0.9-0.1
		l-0.1,8.8V81.3z"/>
	<path id="XMLID_10_" class="st1" d="M166.9,74.9c0,4.2-1.9,6.5-5.4,6.5c-3.3,0-5.1-2.2-5.1-6.2c0-4.1,1.9-6.4,5.4-6.4
		C165.1,68.8,166.9,71,166.9,74.9z M157.4,75.1c0,3.6,1.4,5.5,4.2,5.5c2.8,0,4.3-1.9,4.3-5.5c0-3.5-1.4-5.3-4.2-5.3
		C158.9,69.7,157.4,71.5,157.4,75.1z"/>
	<path id="XMLID_13_" class="st1" d="M177.1,81.3h-5.8l0.1-3.7l-0.1-8.6h1l-0.1,8.5l0,2.9h4.8l0.1,0.1L177.1,81.3z"/>
	<path id="XMLID_15_" class="st1" d="M189.6,74.9c0,4.2-1.9,6.5-5.4,6.5c-3.3,0-5.1-2.2-5.1-6.2c0-4.1,1.9-6.4,5.4-6.4
		C187.8,68.8,189.6,71,189.6,74.9z M180.1,75.1c0,3.6,1.4,5.5,4.2,5.5c2.8,0,4.3-1.9,4.3-5.5c0-3.5-1.4-5.3-4.2-5.3
		C181.5,69.7,180.1,71.5,180.1,75.1z"/>
	<path id="XMLID_18_" class="st1" d="M202.3,69.8l-0.2,0.9l-0.2,0c-1.2-0.7-2.2-1-3.3-1c-3.1,0-4.7,1.9-4.7,5.5
		c0,3.5,1.5,5.3,4.3,5.3c1,0,1.7-0.1,3-0.5l0-1.8l0-1.6l1-0.1l0,1.6l0,2.6c-1.7,0.5-2.8,0.7-4.1,0.7c-3.5,0-5.3-2.2-5.3-6.1
		c0-4.2,2.1-6.4,5.9-6.4C199.9,68.8,201.1,69.2,202.3,69.8z"/>
	<path id="XMLID_20_" class="st1" d="M210.4,65.5l0,0.1c-1.2,0.6-2.4,1.2-3.6,1.7l-0.2-0.1l-0.2-0.5c1.1-0.6,2.3-1.1,3.6-1.9l0.1,0
		L210.4,65.5z M208.3,81.3h-1l0.1-3.7l-0.1-8.6h1l-0.1,8.5L208.3,81.3z"/>
	<path id="XMLID_23_" class="st1" d="M221.3,81.3l-0.3-1l-0.9-2.7l-2.9,0l-2.6,0l-1,2.6l-0.3,1.1h-1l4.7-12.3h1.1l4.3,12.3H221.3z
		 M217.5,70.1h-0.1l-2.5,6.6l2.4,0l2.5,0L217.5,70.1z"/>
	<path id="XMLID_26_" class="st1" d="M237.9,81.3h-6.5l0.1-3.7l-0.1-8.6h6.5l0.1,0.1l-0.1,0.8l-2.9,0l-2.5,0l0,4.7l2.4,0l2.1,0
		l0.1,0.1l-0.1,0.8l-4.5,0l0,2.1l0,2.9l2.5,0l3-0.1l0.1,0.1L237.9,81.3z"/>
	<path id="XMLID_28_" class="st1" d="M251.2,81.3h-1l-7-10.7H243l0,6.7l0,4h-0.9l0.1-3.7l0-8.7h1l7,10.7h0.1l0-10.6l0.9-0.1
		l-0.1,8.8V81.3z"/>
	<path id="XMLID_30_" class="st1" d="M268.6,69.8l-2.1-0.1h-1.5l-0.1,7.7l0,3.8h-1l0.1-3.7l-0.1-7.8h-1.5l-2.1,0.1l-0.1-0.1l0.1-0.8
		h8.2l0.1,0.1L268.6,69.8z"/>
	<path id="XMLID_32_" class="st1" d="M281.3,76.7c0.1,3-1.6,4.7-4.5,4.7c-2.8,0-4.4-1.6-4.4-4.6v-7.9h1l0,7.8c0,2.5,1.2,3.8,3.5,3.8
		s3.5-1.3,3.5-3.7l0-7.9h1l0,6.3V76.7z"/>
	<path id="XMLID_34_" class="st1" d="M292,69.4l-0.2,0.9l-0.2,0.1c-0.8-0.5-1.6-0.7-2.3-0.7c-1.7,0-2.7,1.2-2.7,2.3
		c0,2.7,5.8,2.4,5.8,6c0,1.8-1.6,3.4-3.9,3.4c-1,0-2.2-0.3-3.1-0.9l0.1-1l0.1-0.1c0.9,0.8,2,1.1,3,1.1c1.8,0,2.8-1.2,2.8-2.4
		c0-2.9-5.7-2.5-5.7-6c0-1.8,1.5-3.2,3.8-3.2C290.1,68.9,291,69,292,69.4z"/>
	<path id="XMLID_36_" class="st1" d="M312.9,81.3l-0.3-3.8l-0.8-6.8h-0.1l-3.8,9.1H307l-3.6-9.1h-0.1l-0.8,6.8l-0.4,3.8h-0.9
		l1.3-12.3h1.1l0.7,1.9l3,7.6h0.1l3.2-7.8l0.7-1.7h1.1l1.3,12.3H312.9z"/>
	<path id="XMLID_38_" class="st1" d="M326.2,81.3l-0.3-1l-0.9-2.7l-2.9,0l-2.6,0l-1,2.6l-0.3,1.1h-1l4.7-12.3h1.1l4.3,12.3H326.2z
		 M322.4,70.1h-0.1l-2.5,6.6l2.4,0l2.5,0L322.4,70.1z"/>
	<path id="XMLID_41_" class="st1" d="M340.5,81.3h-1l-7-10.7h-0.1l0,6.7l0,4h-0.9l0.1-3.7l0-8.7h1l7,10.7h0.1l0-10.6l0.9-0.1
		l-0.1,8.8V81.3z"/>
	<path id="XMLID_43_" class="st1" d="M355.5,74.9c0,4.2-1.9,6.5-5.4,6.5c-3.3,0-5.1-2.2-5.1-6.2c0-4.1,1.9-6.4,5.4-6.4
		C353.7,68.8,355.5,71,355.5,74.9z M346,75.1c0,3.6,1.4,5.5,4.2,5.5c2.8,0,4.3-1.9,4.3-5.5c0-3.5-1.4-5.3-4.2-5.3
		C347.5,69.7,346,71.5,346,75.1z"/>
	<path id="XMLID_46_" class="st1" d="M365.5,69.4l-0.2,0.9l-0.2,0.1c-0.8-0.5-1.6-0.7-2.3-0.7c-1.7,0-2.7,1.2-2.7,2.3
		c0,2.7,5.8,2.4,5.8,6c0,1.8-1.6,3.4-3.9,3.4c-1,0-2.2-0.3-3.1-0.9l0.1-1l0.1-0.1c0.9,0.8,2,1.1,3,1.1c1.8,0,2.8-1.2,2.8-2.4
		c0-2.9-5.7-2.5-5.7-6c0-1.8,1.5-3.2,3.8-3.2C363.6,68.9,364.5,69,365.5,69.4z"/>
</g>
<polygon id="XMLID_68_" class="st2" points="83.8,81.3 81,76 29,76 30.8,72.2 79.4,72.2 45.3,11.4 6,81.3 13.4,81.3 13.4,81.3 
	45.3,23.5 67.6,67.2 27.8,67.2 20.2,81 20.1,81.3 "/>
<polygon id="XMLID_67_" class="st1" points="29.5,63 36.9,63 48.2,42.5 41,42.5 "/>
<polygon id="XMLID_66_" class="st0" points="59.8,63 52.4,63 41.1,42.5 48.3,42.5 "/>
</svg>
