<?xml version="1.0" encoding="utf-8"?>
<!-- Generator: Adobe Illustrator 23.0.0, SVG Export Plug-In . SVG Version: 6.00 Build 0)  -->
<svg version="1.1" id="Layer_1" xmlns="http://www.w3.org/2000/svg" xmlns:xlink="http://www.w3.org/1999/xlink" x="0px" y="0px"
	 viewBox="0 0 50 50" style="enable-background:new 0 0 50 50;" xml:space="preserve">
<style type="text/css">
	.st0{fill:#EDB914;}
	.st1{fill-rule:evenodd;clip-rule:evenodd;fill:#EDB914;}
</style>
<path class="st0" d="M355.9,2914.4c0,2.6,1.3,4.5,3.9,4.5c3.4,0,6.5-4.3,7.2-8l1.2-6.6c-0.6-0.2-1.6-0.4-2.9-0.4
	C360.1,2903.8,355.9,2908.7,355.9,2914.4"/>
<path class="st0" d="M330.4,2943.5h64v-64h-64V2943.5z M371.2,2922c-2.4,0-4.5-1.6-4.3-5.2h-0.2c-2.1,3.5-4.8,5.2-8.3,5.2
	c-3.4,0-6.3-2.8-6.3-7.4c0-7.3,5.8-13.9,13.9-13.9c2.5,0,4.8,0.5,6.3,1.2l-2,10.6c-0.9,4.5-0.2,6.5,1.8,6.6c3,0.1,6.3-3.9,6.3-10.8
	c0-8.5-5.1-14.6-14.2-14.6c-9.6,0-17.6,7.6-17.6,19.5c0,9.8,6.4,15.9,15.1,15.9c3.3,0,6.5-0.7,8.9-2.1l0.9,2.5
	c-3.2,1.7-6.5,2.4-10.5,2.4c-9.6,0-17.8-7.1-17.8-18.3c0-12.1,8.4-22.6,21.4-22.6c10.2,0,17.1,7.2,17.1,17
	C381.7,2916.8,376.7,2922,371.2,2922"/>
<g>
	<path class="st1" d="M25,14.1c-3.6,0-6.4,2.9-6.4,6.4c0,3.6,2.9,6.4,6.4,6.4c3.6,0,6.4-2.8,6.4-6.4C31.5,17.1,28.6,14.1,25,14.1"/>
	<path class="st1" d="M0,50h50V0H0V50z M34.5,27.8c-0.9,1.3-1.7,2.6-2.5,3.9c-1.7,2.7-3.5,5.3-5.2,8c-0.1,0.1-0.2,0.2-0.3,0.4
		c-0.8,1-2.3,1-3,0c-0.6-0.9-1.2-1.8-1.8-2.7c-1.6-2.5-3.2-4.9-4.8-7.4c-0.7-1-1.4-2-2-3c-0.9-1.5-1.4-3.1-1.6-4.8
		c-0.3-3.8,0.9-7,3.6-9.6c1.8-1.8,4.1-2.8,6.6-3.1c0.2,0,0.5-0.1,0.7-0.1c0.2,0,0.5,0,0.7,0c4.8,0.2,8.3,2.3,10.5,6.5
		c0.7,1.3,1.1,2.8,1.2,4.3C36.9,22.9,36.1,25.4,34.5,27.8"/>
</g>
</svg>
